<svg preserveAspectRatio="none" width="100%" height="100%" overflow="visible" style="display: block;" viewBox="0 0 117.169 117.169" fill="none" xmlns="http://www.w3.org/2000/svg">
<path id="Vector" d="M90.1745 104.944C84.1101 78.6361 48.758 65.4775 40.4783 55.9163C36.2218 51.0007 37.2882 45.7784 39.9474 42.9682C42.8034 39.9565 48.2453 39.3615 52.3051 42.0116C55.8568 44.3229 62.7679 50.7352 64.3195 53.1015C65.8711 55.4632 65.8528 57.4175 66.6858 59.0057C67.6332 60.7907 69.7752 61.7427 72.8783 60.8136C75.7527 59.9577 77.3408 58.8226 77.3408 58.8226C77.3408 58.8226 74.3384 58.7082 73.1484 57.0193C73.1484 57.0193 68.9834 47.8883 67.4913 44.1536C72.265 45.4214 75.295 46.886 77.4141 48.2225C77.675 50.2546 76.8099 53.756 76.7733 53.9116C76.8694 53.8566 78.4118 52.9458 80.7049 50.662C80.8193 50.7581 80.9337 50.8496 81.0436 50.9366C81.8537 51.5819 80.3616 56.6852 80.3616 56.6852C80.3616 56.6852 83.1627 54.8041 85.3047 52.2593C87.1584 50.067 88.7191 47.2842 88.7191 47.2842C88.7191 47.2842 82.6547 44.7211 79.8582 40.2815C77.0525 35.8465 79.4966 31.0315 79.4966 31.0315C79.4966 31.0315 74.819 29.5303 70.9011 23.8824C66.7819 17.9415 68.3747 10.6413 68.3747 10.6413C65.0243 11.987 62.086 18.651 62.086 18.651C62.086 18.651 53.6232 14.1335 42.6295 15.5387C32.7113 15.5112 23.4933 9.49712 19.667 0C19.667 0 16.7058 12.9939 27.9238 21.1728C27.3151 21.5848 26.7063 22.0196 26.0976 22.4864C20.6236 25.6033 13.6713 25.4202 8.31627 21.6672C8.31627 21.6672 8.60004 23.6169 9.64358 25.9603C10.6871 28.2991 12.4858 31.0361 15.5203 32.6106C15.8453 32.7799 16.1657 32.9172 16.4815 33.0362C15.8499 34.0432 15.264 35.0867 14.7377 36.1577C11.749 41.174 5.74862 43.7096 0 42.2084C0 42.2084 3.01619 47.7144 8.42612 48.3872C9.67562 48.5428 10.7649 48.3552 11.6986 47.9845C11.6528 50.2638 11.7673 52.3966 12.0236 54.4196C11.8863 58.8501 8.89754 62.7817 4.54031 64.0266H4.53573C4.53573 64.0266 8.73735 66.5256 12.6277 64.8413C13.3875 64.5117 13.9733 64.0632 14.4265 63.5643C17.6212 71.281 23.4155 77.5056 30.8027 84.6044C32.7845 86.513 35.0089 88.5543 37.2653 90.6826C59.4634 91.9641 76.2699 101.901 90.5041 117.169C90.9526 113.856 91.2822 109.745 90.1745 104.944ZM66.7819 31.265L73.0614 37.5125L63.038 33.8967L66.7819 31.265ZM81.9283 60.1852C81.9283 60.1852 84.9976 63.3139 89.2537 63.936C88.9662 65.6377 88.5319 66.4862 88.5319 66.4862C88.5319 66.4862 95.8367 72.3676 104.784 68.5788C104.371 73.282 98.5393 75.3572 98.5393 75.3572C98.5393 75.3572 104.804 83.1201 117.169 78.3569C110.461 87.0874 100.446 84.6543 94.3542 81.5351C88.8793 78.7318 81.8299 70.4512 81.9283 60.1852Z" fill="url(#paint0_linear_0_1177)"/>
<defs>
<linearGradient id="paint0_linear_0_1177" x1="1.8026" y1="-22.0554" x2="123.5" y2="-13.6681" gradientUnits="userSpaceOnUse">
<stop stop-color="#9F0000"/>
<stop offset="0.0801635" stop-color="#EA0909"/>
<stop offset="0.197432" stop-color="#B50000"/>
<stop offset="0.255508" stop-color="#F91111"/>
<stop offset="0.316934" stop-color="#B50D0D"/>
<stop offset="0.564873" stop-color="#FF3535"/>
<stop offset="0.734633" stop-color="#EF0000"/>
<stop offset="0.789358" stop-color="#FF1B1B"/>
<stop offset="0.885406" stop-color="#B50707"/>
<stop offset="1" stop-color="#930101"/>
</linearGradient>
</defs>
</svg>
