<svg preserveAspectRatio="none" width="100%" height="100%" overflow="visible" style="display: block;" viewBox="0 0 15 16" fill="none" xmlns="http://www.w3.org/2000/svg">
<g id="Union">
<path d="M10.4604 9.08506C10.4856 9.08506 10.5069 9.10206 10.5127 9.12594L10.732 9.94391C10.7368 9.96553 10.7545 9.98229 10.7763 9.98723L11.6083 10.2041C11.6323 10.2088 11.6498 10.2299 11.6499 10.2545C11.6499 10.2792 11.6323 10.3003 11.6083 10.3053L10.7763 10.5219C10.7545 10.5263 10.7368 10.544 10.732 10.5657L10.5127 11.3832C10.5069 11.407 10.4856 11.424 10.4604 11.424C10.4356 11.424 10.4141 11.407 10.408 11.3832L10.1887 10.5657C10.1837 10.544 10.1662 10.5263 10.1444 10.5219L9.3127 10.3053C9.28816 10.3003 9.27088 10.2792 9.27088 10.2545C9.27088 10.2299 9.28816 10.2088 9.3127 10.2041L10.1444 9.98723C10.1662 9.98229 10.1837 9.96556 10.1887 9.94391L10.408 9.12594C10.4141 9.10207 10.4356 9.08506 10.4604 9.08506Z" fill="url(#paint0_linear_0_1170)"/>
<path d="M7.50053 7.20418C8.83374 7.20493 10.0402 7.46706 10.92 7.89537H10.9195C11.3607 8.10953 11.7184 8.36503 11.9688 8.65303C12.0943 8.79678 12.1919 8.94916 12.2588 9.10822C12.3128 9.23694 12.2508 9.38415 12.1198 9.4373C11.9889 9.49049 11.8392 9.42943 11.7851 9.30068C11.7417 9.19756 11.6742 9.08999 11.579 8.98043C11.39 8.76184 11.0863 8.53787 10.6927 8.34734L10.6919 8.34709C9.90778 7.96309 8.76988 7.7088 7.51028 7.70855H7.49677C6.6663 7.7083 5.88866 7.81638 5.2297 8.00125C4.57074 8.18462 4.02943 8.44849 3.6749 8.73402L3.67417 8.73453C3.43607 8.92409 3.2831 9.1215 3.20824 9.30068C3.16495 9.40409 3.14541 9.50081 3.14515 9.60246C3.14515 9.74155 3.03049 9.85453 2.88877 9.85453C2.74707 9.85453 2.6324 9.74155 2.6324 9.60246C2.63215 9.43337 2.66742 9.2665 2.73455 9.10822C2.85196 8.82932 3.06352 8.57282 3.35118 8.34291L3.35044 8.3434C3.78109 7.99877 4.37894 7.71521 5.08923 7.51631C5.79952 7.3174 6.62123 7.2044 7.49677 7.20418V7.20441L7.50053 7.20418Z" fill="url(#paint1_linear_0_1170)"/>
<path fill-rule="evenodd" clip-rule="evenodd" d="M7.50001 5.42793C8.7919 5.42793 10.0069 5.59409 11.072 5.89168H11.0722C12.1363 6.19099 13.0549 6.61734 13.7529 7.17512L13.7392 7.16381L13.7534 7.17512C13.9858 7.36121 14.1946 7.56357 14.3731 7.78363C14.5516 8.00395 14.6996 8.24245 14.8077 8.49895C14.9311 8.79235 15 9.10865 15 9.43434V11.9929C15 12.3188 14.9311 12.6353 14.8077 12.9287L14.8014 12.9428C14.6783 13.2307 14.5046 13.4953 14.2947 13.7366L14.2944 13.7371C13.8668 14.2272 13.2912 14.6296 12.614 14.96L12.6135 14.9605C11.9355 15.2896 11.1494 15.5483 10.2866 15.7258C9.42382 15.9032 8.48445 15.9997 7.50027 16H7.50001C6.21012 15.9997 4.99712 15.8338 3.93322 15.5372L3.92749 15.5359C2.86343 15.2371 1.9451 14.8098 1.24708 14.2525L1.24656 14.2523C1.01425 14.0662 0.805713 13.8641 0.626956 13.6438C0.448453 13.4235 0.300463 13.1852 0.192299 12.9287C0.0686269 12.6353 -0.000220918 12.3188 5.37587e-07 11.9929V9.43432C-0.000221955 9.10866 0.0686257 8.79235 0.192299 8.49895C0.315751 8.20579 0.491999 7.93625 0.705306 7.69057L0.713312 7.68119L0.705564 7.69057C1.13294 7.2 1.70879 6.79779 2.38603 6.46744L2.38653 6.46719C3.06453 6.13784 3.85067 5.87941 4.71343 5.70191C5.57617 5.52445 6.51557 5.42793 7.50001 5.42793ZM5.44526 14.863C6.00909 14.9526 6.60546 15.0082 7.22587 15.0205V12.9989C6.6087 12.9871 6.01233 12.9366 5.44526 12.8505V14.863ZM9.62338 12.8413C9.03628 12.9329 8.41608 12.9878 7.77415 13.0001V15.0191C8.42012 15.0067 9.03952 14.9467 9.62338 14.8509V12.8413ZM3.66463 14.4175H3.63233C4.02265 14.5546 4.44604 14.672 4.89719 14.7658V12.7562C4.60477 12.6983 4.32134 12.6319 4.04993 12.5561C3.91875 12.5192 3.79006 12.4805 3.66463 12.4396V14.4175ZM11.4042 12.4167C11.0177 12.545 10.6051 12.6547 10.1712 12.7429V14.75C10.387 14.7037 10.5978 14.6533 10.8001 14.5967C11.0097 14.5381 11.211 14.4741 11.4042 14.4052V12.4167ZM2.22605 13.7485C2.40878 13.8664 2.6091 13.9794 2.82667 14.0852C2.92008 14.1309 3.01747 14.1743 3.11635 14.2166V12.243C2.79662 12.116 2.4987 11.9749 2.22605 11.8211V13.7485ZM12.8426 11.7816C12.7066 11.8604 12.5647 11.9365 12.4162 12.0091C12.2677 12.0812 12.1122 12.1496 11.952 12.2149V14.1875C12.2847 14.0399 12.5832 13.8774 12.8426 13.7026V11.7816ZM0.993237 11.9929C0.993237 12.1841 1.03227 12.3705 1.11015 12.5556C1.18802 12.7402 1.3047 12.9236 1.4602 13.1028C1.52577 13.1778 1.59938 13.2522 1.67824 13.3253V11.4691C1.62669 11.4312 1.57663 11.393 1.52778 11.3544C1.32474 11.1914 1.1452 11.0174 0.993237 10.833V11.9929ZM14.0067 10.8335C13.99 10.8537 13.9735 10.8739 13.9562 10.8938C13.7867 11.0885 13.5852 11.2704 13.3578 11.441H13.3904V13.261C13.6215 13.0328 13.7895 12.7948 13.8896 12.5555C13.9677 12.3705 14.0068 12.1841 14.0068 11.9929H14.0067V10.8335ZM7.50005 6.40422C6.29553 6.40422 5.16662 6.56032 4.19995 6.83082C3.23303 7.10085 2.42887 7.48703 1.87403 7.93234C1.50323 8.22847 1.24587 8.54896 1.11015 8.87215C1.03227 9.05727 0.993237 9.24337 0.993237 9.43437C0.993237 9.62537 1.03227 9.81148 1.11015 9.9966C1.18802 10.1812 1.30471 10.3646 1.4602 10.5435C1.77115 10.9022 2.23784 11.2399 2.82669 11.5262C4.00441 12.1004 5.6646 12.4655 7.50005 12.4647C8.70479 12.4647 9.83347 12.3084 10.8001 12.0377C11.767 11.7677 12.5714 11.3817 13.126 10.9366C13.4965 10.64 13.7544 10.3195 13.8896 9.99656C13.9677 9.81144 14.0068 9.62537 14.0068 9.43434C14.0068 9.24331 13.9678 9.05725 13.8897 8.87213C13.812 8.68729 13.6954 8.50391 13.5396 8.32494C13.2292 7.96682 12.7623 7.62859 12.1732 7.34256C10.9954 6.76853 9.3355 6.40322 7.50005 6.40422Z" fill="url(#paint2_linear_0_1170)"/>
<path d="M2.37326 2.45588C2.41282 2.45588 2.44636 2.48245 2.45564 2.51988L2.80088 3.80822C2.80816 3.84222 2.83645 3.86878 2.87075 3.87615L4.18066 4.21785C4.21896 4.22573 4.24623 4.25869 4.24624 4.29709C4.24624 4.3355 4.21896 4.36947 4.18066 4.37734L2.87075 4.7185C2.83645 4.72565 2.80816 4.753 2.80088 4.78693L2.45564 6.07457C2.44635 6.11272 2.41279 6.13906 2.37326 6.13906C2.33394 6.13906 2.3001 6.11272 2.29059 6.07457L1.94561 4.78693C1.93738 4.753 1.91004 4.72565 1.87552 4.7185L0.56587 4.37734C0.526808 4.3695 0.500018 4.3355 0.500016 4.29713C0.500016 4.25872 0.526806 4.22575 0.56587 4.21787L1.87552 3.87619C1.91004 3.86879 1.93735 3.84221 1.94561 3.80824L2.29059 2.51988C2.30013 2.48245 2.33397 2.45588 2.37326 2.45588Z" fill="url(#paint3_linear_0_1170)"/>
<path d="M12.2627 0C12.3183 0 12.3651 0.0379141 12.3777 0.0903516L12.8616 1.89244C12.8719 1.93969 12.9109 1.97763 12.9587 1.9877L14.7919 2.46572C14.8455 2.47629 14.8836 2.52232 14.8836 2.57697C14.8836 2.63113 14.8455 2.67813 14.7919 2.68801L12.9587 3.16625C12.9109 3.17584 12.8719 3.21428 12.8616 3.26152L12.3777 5.06363C12.3652 5.11653 12.3183 5.15371 12.2627 5.15371C12.2077 5.15371 12.1604 5.11653 12.1474 5.06363L11.6641 3.26152C11.6531 3.21425 11.6143 3.17585 11.5665 3.16625L9.73353 2.68801C9.67947 2.67816 9.64191 2.63113 9.64191 2.57697C9.64191 2.52235 9.67944 2.47632 9.73353 2.46572L11.5665 1.9877C11.6143 1.97763 11.6531 1.93969 11.6641 1.89244L12.1474 0.0903516C12.1604 0.0379146 12.2077 8.19283e-07 12.2627 0Z" fill="url(#paint4_linear_0_1170)"/>
</g>
<defs>
<linearGradient id="paint0_linear_0_1170" x1="-6.89299" y1="6.68166" x2="1.56018" y2="-5.07722" gradientUnits="userSpaceOnUse">
<stop stop-color="#C27A2C"/>
<stop offset="0.0801635" stop-color="#EEB247"/>
<stop offset="0.197432" stop-color="#CB822B"/>
<stop offset="0.255508" stop-color="#E79531"/>
<stop offset="0.316934" stop-color="#CD8C30"/>
<stop offset="0.564873" stop-color="#FAF8BE"/>
<stop offset="0.734633" stop-color="#E7B65B"/>
<stop offset="0.789358" stop-color="#FEE26A"/>
<stop offset="0.885406" stop-color="#D09034"/>
<stop offset="1" stop-color="#BA7228"/>
</linearGradient>
<linearGradient id="paint1_linear_0_1170" x1="-6.89299" y1="6.68166" x2="1.56018" y2="-5.07722" gradientUnits="userSpaceOnUse">
<stop stop-color="#C27A2C"/>
<stop offset="0.0801635" stop-color="#EEB247"/>
<stop offset="0.197432" stop-color="#CB822B"/>
<stop offset="0.255508" stop-color="#E79531"/>
<stop offset="0.316934" stop-color="#CD8C30"/>
<stop offset="0.564873" stop-color="#FAF8BE"/>
<stop offset="0.734633" stop-color="#E7B65B"/>
<stop offset="0.789358" stop-color="#FEE26A"/>
<stop offset="0.885406" stop-color="#D09034"/>
<stop offset="1" stop-color="#BA7228"/>
</linearGradient>
<linearGradient id="paint2_linear_0_1170" x1="-6.89299" y1="6.68166" x2="1.56018" y2="-5.07722" gradientUnits="userSpaceOnUse">
<stop stop-color="#C27A2C"/>
<stop offset="0.0801635" stop-color="#EEB247"/>
<stop offset="0.197432" stop-color="#CB822B"/>
<stop offset="0.255508" stop-color="#E79531"/>
<stop offset="0.316934" stop-color="#CD8C30"/>
<stop offset="0.564873" stop-color="#FAF8BE"/>
<stop offset="0.734633" stop-color="#E7B65B"/>
<stop offset="0.789358" stop-color="#FEE26A"/>
<stop offset="0.885406" stop-color="#D09034"/>
<stop offset="1" stop-color="#BA7228"/>
</linearGradient>
<linearGradient id="paint3_linear_0_1170" x1="-6.89299" y1="6.68166" x2="1.56018" y2="-5.07722" gradientUnits="userSpaceOnUse">
<stop stop-color="#C27A2C"/>
<stop offset="0.0801635" stop-color="#EEB247"/>
<stop offset="0.197432" stop-color="#CB822B"/>
<stop offset="0.255508" stop-color="#E79531"/>
<stop offset="0.316934" stop-color="#CD8C30"/>
<stop offset="0.564873" stop-color="#FAF8BE"/>
<stop offset="0.734633" stop-color="#E7B65B"/>
<stop offset="0.789358" stop-color="#FEE26A"/>
<stop offset="0.885406" stop-color="#D09034"/>
<stop offset="1" stop-color="#BA7228"/>
</linearGradient>
<linearGradient id="paint4_linear_0_1170" x1="-6.89299" y1="6.68166" x2="1.56018" y2="-5.07722" gradientUnits="userSpaceOnUse">
<stop stop-color="#C27A2C"/>
<stop offset="0.0801635" stop-color="#EEB247"/>
<stop offset="0.197432" stop-color="#CB822B"/>
<stop offset="0.255508" stop-color="#E79531"/>
<stop offset="0.316934" stop-color="#CD8C30"/>
<stop offset="0.564873" stop-color="#FAF8BE"/>
<stop offset="0.734633" stop-color="#E7B65B"/>
<stop offset="0.789358" stop-color="#FEE26A"/>
<stop offset="0.885406" stop-color="#D09034"/>
<stop offset="1" stop-color="#BA7228"/>
</linearGradient>
</defs>
</svg>
