<svg preserveAspectRatio="none" width="100%" height="100%" overflow="visible" style="display: block;" viewBox="0 0 15 18" fill="none" xmlns="http://www.w3.org/2000/svg">
<g id="Union">
<mask id="path-1-inside-1_0_1192" fill="white">
<path d="M7.51082 3.58053C10.8706 3.58053 15 8.6126 15 12.7061C15 14.2737 14.4284 15.5308 13.301 16.4419C12.022 17.476 10.0736 18 7.5108 18C4.93858 18 2.98466 17.4801 1.70289 16.4545C0.572722 15.5499 0 14.3008 0 12.7415C1.48271e-06 8.632 4.14156 3.58054 7.51082 3.58053ZM7.51826 6.67391C7.18515 6.67391 6.9149 6.93574 6.91489 7.25847V7.53649C5.98783 7.79186 5.30588 8.6179 5.30588 9.59676C5.30588 10.6837 6.37632 11.2321 7.23622 11.6725C7.86942 11.9967 8.52389 12.3316 8.52389 12.7145C8.52388 13.2519 8.0729 13.6888 7.51826 13.6888C6.96361 13.6888 6.51265 13.2519 6.51265 12.7145C6.51265 12.3918 6.24238 12.1299 5.90926 12.1299C5.57615 12.1299 5.30588 12.3918 5.30588 12.7145C5.30588 13.6934 5.98783 14.5194 6.91489 14.7748V15.0528C6.9149 15.3755 7.18515 15.6373 7.51826 15.6373C7.85137 15.6373 8.12164 15.3755 8.12164 15.0528V14.7748C9.04871 14.5194 9.73066 13.6934 9.73066 12.7145C9.73066 11.6275 8.66022 11.0791 7.80032 10.6388C7.16708 10.3145 6.51269 9.97961 6.51265 9.59676C6.51265 9.0594 6.96361 8.62247 7.51826 8.62247C8.0729 8.62247 8.52388 9.05939 8.52389 9.59676C8.52389 9.91949 8.79416 10.1813 9.12727 10.1813C9.46039 10.1813 9.73066 9.91949 9.73066 9.59676C9.73066 8.6179 9.04871 7.79186 8.12164 7.53649V7.25847C8.12164 6.93574 7.85137 6.67391 7.51826 6.67391ZM6.00236 0C6.80489 0 7.52731 0.320453 7.98384 0.879543C8.28746 1.251 8.72547 1.46564 9.1615 1.43558C9.41209 1.42226 9.76368 1.32409 10.0159 0.932454C10.182 0.674759 10.5246 0.583803 10.8035 0.722351C11.0824 0.861253 11.2049 1.18399 11.0856 1.46514C11.0181 1.62366 10.6865 2.36352 10.1361 3.10089C9.26868 2.66228 8.37689 2.4113 7.5108 2.4113C6.64451 2.4113 5.75272 2.66214 4.88506 3.10036C4.33495 2.36321 4.00357 1.62369 3.93611 1.4652C3.8528 1.26921 3.88502 1.04544 4.02095 0.8795C4.47744 0.320449 5.19984 2.00102e-06 6.00236 0Z"/>
</mask>
<path d="M7.51082 3.58053C10.8706 3.58053 15 8.6126 15 12.7061C15 14.2737 14.4284 15.5308 13.301 16.4419C12.022 17.476 10.0736 18 7.5108 18C4.93858 18 2.98466 17.4801 1.70289 16.4545C0.572722 15.5499 0 14.3008 0 12.7415C1.48271e-06 8.632 4.14156 3.58054 7.51082 3.58053ZM7.51826 6.67391C7.18515 6.67391 6.9149 6.93574 6.91489 7.25847V7.53649C5.98783 7.79186 5.30588 8.6179 5.30588 9.59676C5.30588 10.6837 6.37632 11.2321 7.23622 11.6725C7.86942 11.9967 8.52389 12.3316 8.52389 12.7145C8.52388 13.2519 8.0729 13.6888 7.51826 13.6888C6.96361 13.6888 6.51265 13.2519 6.51265 12.7145C6.51265 12.3918 6.24238 12.1299 5.90926 12.1299C5.57615 12.1299 5.30588 12.3918 5.30588 12.7145C5.30588 13.6934 5.98783 14.5194 6.91489 14.7748V15.0528C6.9149 15.3755 7.18515 15.6373 7.51826 15.6373C7.85137 15.6373 8.12164 15.3755 8.12164 15.0528V14.7748C9.04871 14.5194 9.73066 13.6934 9.73066 12.7145C9.73066 11.6275 8.66022 11.0791 7.80032 10.6388C7.16708 10.3145 6.51269 9.97961 6.51265 9.59676C6.51265 9.0594 6.96361 8.62247 7.51826 8.62247C8.0729 8.62247 8.52388 9.05939 8.52389 9.59676C8.52389 9.91949 8.79416 10.1813 9.12727 10.1813C9.46039 10.1813 9.73066 9.91949 9.73066 9.59676C9.73066 8.6179 9.04871 7.79186 8.12164 7.53649V7.25847C8.12164 6.93574 7.85137 6.67391 7.51826 6.67391ZM6.00236 0C6.80489 0 7.52731 0.320453 7.98384 0.879543C8.28746 1.251 8.72547 1.46564 9.1615 1.43558C9.41209 1.42226 9.76368 1.32409 10.0159 0.932454C10.182 0.674759 10.5246 0.583803 10.8035 0.722351C11.0824 0.861253 11.2049 1.18399 11.0856 1.46514C11.0181 1.62366 10.6865 2.36352 10.1361 3.10089C9.26868 2.66228 8.37689 2.4113 7.5108 2.4113C6.64451 2.4113 5.75272 2.66214 4.88506 3.10036C4.33495 2.36321 4.00357 1.62369 3.93611 1.4652C3.8528 1.26921 3.88502 1.04544 4.02095 0.8795C4.47744 0.320449 5.19984 2.00102e-06 6.00236 0Z" fill="var(--fill-0, #E69A28)"/>
<path d="M7.51082 3.58053V-2.41947H7.5108L7.51082 3.58053ZM15 12.7061L9 12.7061V12.7061L15 12.7061ZM13.301 16.4419L9.52972 11.7753L9.52887 11.776L13.301 16.4419ZM7.5108 18V24H7.5108L7.5108 18ZM1.70289 16.4545L-2.04649 21.1387L-2.0458 21.1393L1.70289 16.4545ZM0 12.7415L-6 12.7415V12.7415H0ZM7.51826 6.67391V0.673909H7.51816L7.51826 6.67391ZM6.91489 7.25847L0.914893 7.25837V7.25847H6.91489ZM6.91489 7.53649L8.50834 13.321L12.9149 12.1072V7.53649H6.91489ZM5.30588 9.59676L-0.694122 9.59674V9.59676H5.30588ZM7.23622 11.6725L4.50146 17.013L4.5015 17.013L7.23622 11.6725ZM8.52389 12.7145L14.5239 12.7145V12.7145H8.52389ZM7.51826 13.6888L7.5182 19.6888H7.51826V13.6888ZM6.51265 12.7145H0.512651V12.7145L6.51265 12.7145ZM5.90926 12.1299L5.90932 6.12992H5.90926V12.1299ZM5.30588 12.7145H-0.694122V12.7145L5.30588 12.7145ZM6.91489 14.7748H12.9149V10.2041L8.50834 8.99022L6.91489 14.7748ZM6.91489 15.0528H0.914893V15.0529L6.91489 15.0528ZM7.51826 15.6373L7.51816 21.6373H7.51826V15.6373ZM8.12164 15.0528L14.1216 15.0529V15.0528H8.12164ZM8.12164 14.7748L6.52819 8.99022L2.12164 10.2041V14.7748H8.12164ZM9.73066 12.7145L15.7307 12.7145V12.7145H9.73066ZM7.80032 10.6388L10.5351 5.29827L10.5349 5.29819L7.80032 10.6388ZM6.51265 9.59676L0.512651 9.59672L0.512651 9.59732L6.51265 9.59676ZM7.51826 8.62247V2.62247H7.5182L7.51826 8.62247ZM8.52389 9.59676H14.5239V9.59672L8.52389 9.59676ZM9.12727 10.1813L9.12723 16.1813H9.12727V10.1813ZM9.73066 9.59676H15.7307V9.59674L9.73066 9.59676ZM8.12164 7.53649H2.12164V12.1072L6.52819 13.321L8.12164 7.53649ZM8.12164 7.25847H14.1216L14.1216 7.25837L8.12164 7.25847ZM6.00236 0V-6H6.00235L6.00236 0ZM7.98384 0.879543L3.3364 4.67444L3.33823 4.67668L7.98384 0.879543ZM9.1615 1.43558L8.84293 -4.55595L8.79587 -4.55345L8.74885 -4.55021L9.1615 1.43558ZM10.0159 0.932454L4.97324 -2.31898L4.97131 -2.31599L10.0159 0.932454ZM10.8035 0.722351L13.4786 -4.6483L13.4728 -4.65116L10.8035 0.722351ZM11.0856 1.46514L16.606 3.81562L16.6083 3.81026L11.0856 1.46514ZM10.1361 3.10089L7.42849 8.45524L11.928 10.7305L14.9441 6.69009L10.1361 3.10089ZM7.5108 2.4113L7.5108 -3.5887H7.5108V2.4113ZM4.88506 3.10036L0.0764493 6.68885L3.09096 10.7283L7.59 8.45604L4.88506 3.10036ZM3.93611 1.4652L-1.58573 3.81239L-1.5846 3.81505L3.93611 1.4652ZM4.02095 0.8795L8.66245 4.68169L8.66841 4.67438L4.02095 0.8795ZM7.51082 3.58053V9.58053C6.88616 9.58053 6.67735 9.36851 6.92497 9.52283C7.13567 9.65414 7.48944 9.94201 7.87724 10.4146C8.25745 10.8779 8.56824 11.395 8.76987 11.8754C8.97864 12.3728 9 12.6591 9 12.7061L15 12.7061L21 12.7062C21 8.84879 19.1748 5.265 17.1535 2.80195C15.2877 0.528457 11.8825 -2.41947 7.51082 -2.41947V3.58053ZM15 12.7061L9 12.7061C9 12.7523 8.99437 12.594 9.11153 12.3364C9.23444 12.0661 9.40762 11.874 9.52972 11.7753L13.301 16.4419L17.0724 21.1085C19.736 18.9558 21 15.9165 21 12.7061L15 12.7061ZM13.301 16.4419L9.52887 11.776C9.66835 11.6632 9.66312 11.7247 9.3284 11.8148C8.9864 11.9068 8.40249 12 7.51079 12L7.5108 18L7.5108 24C10.7217 24 14.2736 23.3712 17.0732 21.1078L13.301 16.4419ZM7.5108 18V12C6.60957 12 6.01633 11.9069 5.66583 11.8136C5.32174 11.7221 5.31227 11.6582 5.45157 11.7697L1.70289 16.4545L-2.0458 21.1393C0.755054 23.3805 4.30333 24 7.5108 24V18ZM1.70289 16.4545L5.45226 11.7702C5.57508 11.8685 5.7536 12.0635 5.88146 12.3423C6.00368 12.6088 6 12.7776 6 12.7415H0H-6C-6 15.961 -4.72103 18.998 -2.04649 21.1387L1.70289 16.4545ZM0 12.7415L6 12.7415C6 12.6896 6.02258 12.3984 6.23298 11.8967C6.43626 11.4119 6.74924 10.8907 7.13184 10.4241C7.52206 9.94813 7.87841 9.65767 8.09156 9.5247C8.34172 9.36865 8.13465 9.58053 7.51084 9.58053L7.51082 3.58053L7.5108 -2.41947C3.13181 -2.41945 -0.279059 0.53633 -2.14796 2.81584C-4.17322 5.28605 -6 8.87795 -6 12.7415L0 12.7415ZM7.51826 6.67391L7.51816 0.673909C4.05189 0.673963 0.914956 3.44438 0.914893 7.25837L6.91489 7.25847L12.9149 7.25857C12.9148 10.4271 10.3184 12.6739 7.51835 12.6739L7.51826 6.67391ZM6.91489 7.25847H0.914893V7.53649H6.91489H12.9149V7.25847H6.91489ZM6.91489 7.53649L5.32144 1.75195C1.98688 2.67051 -0.694113 5.72025 -0.694122 9.59674L5.30588 9.59676L11.3059 9.59677C11.3059 11.5156 9.98878 12.9132 8.50834 13.321L6.91489 7.53649ZM5.30588 9.59676H-0.694122C-0.694122 12.4244 0.805147 14.3498 1.99888 15.3937C3.02997 16.2954 4.20855 16.863 4.50146 17.013L7.23622 11.6725L9.97097 6.33195C9.73251 6.20984 9.66092 6.17128 9.61667 6.14522C9.57813 6.12252 9.70567 6.19204 9.89829 6.36048C10.0954 6.53287 10.4557 6.89096 10.7684 7.4713C11.1042 8.09443 11.3059 8.82993 11.3059 9.59676H5.30588ZM7.23622 11.6725L4.5015 17.013C4.93681 17.2359 4.82988 17.1956 4.64724 17.0661C4.54113 16.9909 4.13016 16.6957 3.70133 16.1522C3.25976 15.5926 2.52389 14.4091 2.52389 12.7145H8.52389H14.5239C14.5239 10.8285 13.7062 9.45958 13.1221 8.7193C12.5508 7.99517 11.9366 7.52425 11.5878 7.27689C10.9196 6.80316 10.1688 6.43327 9.97093 6.33193L7.23622 11.6725ZM8.52389 12.7145L2.52389 12.7145C2.5239 9.76054 4.93963 7.68879 7.51826 7.68879V13.6888V19.6888C11.2062 19.6888 14.5239 16.7432 14.5239 12.7145L8.52389 12.7145ZM7.51826 13.6888L7.51831 7.68879C10.097 7.68881 12.5126 9.76066 12.5127 12.7145L6.51265 12.7145L0.512651 12.7145C0.512676 16.7431 3.83021 19.6888 7.5182 19.6888L7.51826 13.6888ZM6.51265 12.7145H12.5127C12.5127 8.90036 9.37556 6.12995 5.90932 6.12992L5.90926 12.1299L5.9092 18.1299C3.10919 18.1299 0.512651 15.8832 0.512651 12.7145H6.51265ZM5.90926 12.1299V6.12992C2.44291 6.12992 -0.694122 8.90042 -0.694122 12.7145H5.30588H11.3059C11.3059 15.8831 8.70938 18.1299 5.90926 18.1299V12.1299ZM5.30588 12.7145L-0.694122 12.7145C-0.694111 16.591 1.98688 19.6407 5.32144 20.5593L6.91489 14.7748L8.50834 8.99022C9.98878 9.39804 11.3059 10.7957 11.3059 12.7145L5.30588 12.7145ZM6.91489 14.7748H0.914893V15.0528H6.91489H12.9149V14.7748H6.91489ZM6.91489 15.0528L0.914893 15.0529C0.914963 18.8669 4.05188 21.6373 7.51816 21.6373L7.51826 15.6373L7.51835 9.63735C10.3184 9.63739 12.9148 11.8842 12.9149 15.0527L6.91489 15.0528ZM7.51826 15.6373V21.6373C10.9844 21.6373 14.1216 18.8671 14.1216 15.0529L8.12164 15.0528L2.12164 15.0527C2.1217 11.884 4.71832 9.63735 7.51826 9.63735V15.6373ZM8.12164 15.0528H14.1216V14.7748H8.12164H2.12164V15.0528H8.12164ZM8.12164 14.7748L9.71509 20.5593C13.0497 19.6407 15.7306 16.591 15.7307 12.7145L9.73066 12.7145L3.73066 12.7145C3.73066 10.7957 5.04775 9.39804 6.52819 8.99022L8.12164 14.7748ZM9.73066 12.7145H15.7307C15.7307 9.88682 14.2314 7.96144 13.0377 6.91754C12.0066 6.01587 10.828 5.44826 10.5351 5.29827L7.80032 10.6388L5.06557 15.9793C5.30403 16.1014 5.37561 16.14 5.41986 16.166C5.45841 16.1887 5.33087 16.1192 5.13825 15.9508C4.94111 15.7784 4.58087 15.4203 4.26813 14.84C3.93231 14.2168 3.73066 13.4813 3.73066 12.7145H9.73066ZM7.80032 10.6388L10.5349 5.29819C10.0997 5.07537 10.2067 5.11565 10.3894 5.2452C10.4955 5.32045 10.9065 5.61559 11.3352 6.15906C11.7768 6.71869 12.5125 7.90193 12.5127 9.59619L6.51265 9.59676L0.512651 9.59732C0.512829 11.483 1.33035 12.8517 1.91438 13.5919C2.48567 14.316 3.09978 14.7869 3.44868 15.0343C4.11691 15.5081 4.86765 15.878 5.06573 15.9794L7.80032 10.6388ZM6.51265 9.59676L12.5127 9.59679C12.5126 12.5506 10.097 14.6224 7.51831 14.6225L7.51826 8.62247L7.5182 2.62247C3.83021 2.6225 0.512672 5.56819 0.512651 9.59672L6.51265 9.59676ZM7.51826 8.62247V14.6225C4.93964 14.6225 2.5239 12.5507 2.52389 9.59679L8.52389 9.59676L14.5239 9.59672C14.5239 5.56807 11.2062 2.62247 7.51826 2.62247V8.62247ZM8.52389 9.59676H2.52389C2.52389 13.4109 5.66096 16.1813 9.12723 16.1813L9.12727 10.1813L9.12731 4.18134C11.9274 4.18136 14.5239 6.4281 14.5239 9.59676H8.52389ZM9.12727 10.1813V16.1813C12.5936 16.1813 15.7307 13.4108 15.7307 9.59676H9.73066H3.73066C3.73066 6.42814 6.32716 4.18134 9.12727 4.18134V10.1813ZM9.73066 9.59676L15.7307 9.59674C15.7306 5.72025 13.0497 2.67051 9.71509 1.75195L8.12164 7.53649L6.52819 13.321C5.04775 12.9132 3.73066 11.5156 3.73066 9.59677L9.73066 9.59676ZM8.12164 7.53649H14.1216V7.25847H8.12164H2.12164V7.53649H8.12164ZM8.12164 7.25847L14.1216 7.25837C14.1216 3.44417 10.9844 0.673909 7.51826 0.673909V6.67391V12.6739C4.71833 12.6739 2.1217 10.4273 2.12164 7.25857L8.12164 7.25847ZM6.00236 0V6C5.23353 6 4.15746 5.67996 3.3364 4.67444L7.98384 0.879543L12.6313 -2.91535C10.8972 -5.03905 8.37625 -6 6.00236 -6V0ZM7.98384 0.879543L3.33823 4.67668C4.65663 6.28968 6.87877 7.60719 9.57414 7.42138L9.1615 1.43558L8.74885 -4.55021C10.5722 -4.6759 11.9183 -3.78767 12.6295 -2.9176L7.98384 0.879543ZM9.1615 1.43558L9.48006 7.42712C11.0516 7.34356 13.4759 6.64163 15.0604 4.1809L10.0159 0.932454L4.97131 -2.31599C5.44074 -3.04496 6.11525 -3.647 6.91081 -4.04368C7.65962 -4.41703 8.35322 -4.52992 8.84293 -4.55595L9.1615 1.43558ZM10.0159 0.932454L15.0585 4.18388C13.5218 6.5672 10.5123 7.27722 8.13414 6.09586L10.8035 0.722351L13.4728 -4.65116C10.5369 -6.10962 6.84229 -5.21768 4.97324 -2.31898L10.0159 0.932454ZM10.8035 0.722351L8.12839 6.093C5.66009 4.86355 4.40208 1.85356 5.56283 -0.879986L11.0856 1.46514L16.6083 3.81026C18.0078 0.514426 16.5046 -3.14104 13.4786 -4.6483L10.8035 0.722351ZM11.0856 1.46514L5.56511 -0.885341C5.59117 -0.946544 5.56985 -0.891338 5.51083 -0.781893C5.44947 -0.668109 5.383 -0.56202 5.32797 -0.488306L10.1361 3.10089L14.9441 6.69009C15.8973 5.4133 16.4473 4.18822 16.606 3.81561L11.0856 1.46514ZM10.1361 3.10089L12.8436 -2.25346C11.348 -3.00974 9.52867 -3.5887 7.5108 -3.5887L7.5108 2.4113L7.51079 8.4113C7.36377 8.4113 7.28094 8.39009 7.27283 8.38792C7.26615 8.38614 7.31898 8.39987 7.42849 8.45524L10.1361 3.10089ZM7.5108 2.4113V-3.5887C5.49351 -3.5887 3.67499 -3.01031 2.18012 -2.25531L4.88506 3.10036L7.59 8.45604C7.64376 8.42889 7.68473 8.41131 7.71232 8.40059C7.73992 8.38987 7.75161 8.38699 7.74734 8.38813C7.73967 8.39018 7.6573 8.4113 7.5108 8.4113V2.4113ZM4.88506 3.10036L9.69367 -0.488126C9.63863 -0.561878 9.57219 -0.667962 9.51087 -0.781681C9.45186 -0.891128 9.43061 -0.946201 9.45681 -0.884646L3.93611 1.4652L-1.5846 3.81505C-1.42581 4.18811 -0.875996 5.41257 0.0764493 6.68885L4.88506 3.10036ZM3.93611 1.4652L9.45795 -0.881985C10.253 0.988325 9.93233 3.13148 8.66244 4.68168L4.02095 0.8795L-0.620537 -2.92268C-2.16228 -1.0406 -2.54738 1.55009 -1.58573 3.81239L3.93611 1.4652ZM4.02095 0.8795L8.66841 4.67438C7.84729 5.67998 6.77116 6 6.00238 6L6.00236 0L6.00235 -6C3.62852 -5.99999 1.1076 -5.03908 -0.62651 -2.91538L4.02095 0.8795Z" fill="url(#paint0_linear_0_1192)" mask="url(#path-1-inside-1_0_1192)"/>
</g>
<defs>
<linearGradient id="paint0_linear_0_1192" x1="-6.89299" y1="7.51687" x2="2.91768" y2="-4.61402" gradientUnits="userSpaceOnUse">
<stop stop-color="#C27A2C"/>
<stop offset="0.0801635" stop-color="#EEB247"/>
<stop offset="0.197432" stop-color="#CB822B"/>
<stop offset="0.255508" stop-color="#E79531"/>
<stop offset="0.316934" stop-color="#CD8C30"/>
<stop offset="0.564873" stop-color="#FAF8BE"/>
<stop offset="0.734633" stop-color="#E7B65B"/>
<stop offset="0.789358" stop-color="#FEE26A"/>
<stop offset="0.885406" stop-color="#D09034"/>
<stop offset="1" stop-color="#BA7228"/>
</linearGradient>
</defs>
</svg>
