<svg preserveAspectRatio="none" width="100%" height="100%" overflow="visible" style="display: block;" viewBox="0 0 149.771 94.4395" fill="none" xmlns="http://www.w3.org/2000/svg">
<path id="Corner" d="M24.4395 0C26.6314 0 28.5257 1.2696 29.4287 3.11133H97.9189V7.625C97.9189 10.9975 98.5341 16.5221 99.2734 20.5654C99.7628 20.5261 100.328 20.4847 100.956 20.4453C103.212 20.3038 106.306 20.1854 109.633 20.2861C112.943 20.3864 116.576 20.7059 119.877 21.4717C123.103 22.22 126.411 23.4825 128.682 25.7529C130.921 27.9922 132.257 31.2592 133.104 34.4707C133.972 37.7555 134.427 41.3758 134.661 44.6816C134.896 48.0022 134.913 51.0918 134.871 53.3457C134.867 53.5437 134.863 53.7358 134.858 53.9209H149.771V74.209L128.815 94.4395V59.0225C120.57 56.2321 114.182 53.0476 108.879 48.0332C103.6 43.0416 99.607 36.4381 95.7656 27.1758H55.4678C51.4937 32.335 47.7681 35.9659 43.1494 38.3506C38.2005 40.9057 32.5387 41.8664 25.0957 42.208L25.0273 42.2109H0.000976562L0 36.2939L24.8916 36.293C32.0038 35.9622 36.6316 35.0562 40.4346 33.0928C44.2331 31.1316 47.5208 27.9535 51.624 22.4482L52.5117 21.2578H93.3857C92.707 17.4371 92.1508 12.6152 92.0264 9.0293H28.7676C27.7509 10.2922 26.1898 11.1025 24.4395 11.1025C22.6891 11.1025 21.128 10.2923 20.1113 9.0293H0.000976562V3.11133H19.4512C20.3541 1.26968 22.2477 0.000107505 24.4395 0ZM134.733 80.501L143.853 71.6963V59.8389H134.733V80.501ZM109.453 26.2021C106.599 26.1157 103.905 26.202 101.828 26.3213C105.303 34.3987 108.747 39.7652 112.944 43.7334C117.041 47.6069 122.038 50.322 128.961 52.8066C128.99 50.7182 128.962 47.9917 128.758 45.0996C128.538 41.9896 128.12 38.7723 127.383 35.9814C126.626 33.1166 125.628 31.0681 124.497 29.9375C123.397 28.8382 121.391 27.8976 118.54 27.2363C115.765 26.5926 112.559 26.2963 109.453 26.2021Z" fill="url(#paint0_linear_0_1209)"/>
<defs>
<linearGradient id="paint0_linear_0_1209" x1="-68.8245" y1="39.4383" x2="-30.9301" y2="-49.7324" gradientUnits="userSpaceOnUse">
<stop stop-color="#C27A2C"/>
<stop offset="0.0801635" stop-color="#EEB247"/>
<stop offset="0.197432" stop-color="#CB822B"/>
<stop offset="0.255508" stop-color="#E79531"/>
<stop offset="0.316934" stop-color="#CD8C30"/>
<stop offset="0.564873" stop-color="#FAF8BE"/>
<stop offset="0.734633" stop-color="#E7B65B"/>
<stop offset="0.789358" stop-color="#FEE26A"/>
<stop offset="0.885406" stop-color="#D09034"/>
<stop offset="1" stop-color="#BA7228"/>
</linearGradient>
</defs>
</svg>
