<svg preserveAspectRatio="none" width="100%" height="100%" overflow="visible" style="display: block;" viewBox="0 0 149.77 94.4395" fill="none" xmlns="http://www.w3.org/2000/svg">
<path id="Corner" d="M24.4395 0C26.6312 0.000151682 28.5248 1.26971 29.4277 3.11133H97.918V7.625C97.918 10.9975 98.5331 16.5221 99.2725 20.5654C99.7618 20.5261 100.327 20.4847 100.955 20.4453C103.211 20.3038 106.305 20.1854 109.632 20.2861C112.942 20.3864 116.576 20.7058 119.877 21.4717C123.103 22.22 126.41 23.4827 128.681 25.7529C130.92 27.9922 132.256 31.2592 133.104 34.4707C133.971 37.7555 134.426 41.3758 134.66 44.6816C134.895 48.0022 134.912 51.0918 134.87 53.3457C134.866 53.5437 134.862 53.7358 134.857 53.9209H149.77V74.209L128.814 94.4395V59.0225C120.569 56.2321 114.181 53.0475 108.878 48.0332C103.599 43.0416 99.606 36.4381 95.7646 27.1758H55.4668C51.4927 32.3349 47.7671 35.966 43.1484 38.3506C38.1995 40.9057 32.5378 41.8664 25.0947 42.208L25.0264 42.2109H0V36.2939L24.8906 36.293C32.0029 35.9622 36.6306 35.0562 40.4336 33.0928C44.2322 31.1316 47.5208 27.9535 51.624 22.4482L52.5107 21.2578H93.3848C92.706 17.4371 92.1508 12.6152 92.0264 9.0293H28.7676C27.7509 10.2923 26.1898 11.1024 24.4395 11.1025C22.6889 11.1025 21.1271 10.2924 20.1104 9.0293H0V3.11133H19.4502C20.3532 1.2696 22.2475 0 24.4395 0ZM134.732 80.501L143.852 71.6963V59.8389H134.732V80.501ZM109.453 26.2021C106.599 26.1157 103.905 26.202 101.828 26.3213C105.303 34.3986 108.747 39.7652 112.944 43.7334C117.041 47.6067 122.037 50.3221 128.96 52.8066C128.989 50.7182 128.962 47.9917 128.758 45.0996C128.538 41.9895 128.119 38.7723 127.382 35.9814C126.625 33.1166 125.627 31.0681 124.496 29.9375C123.396 28.8382 121.39 27.8976 118.539 27.2363C115.764 26.5926 112.559 26.2963 109.453 26.2021Z" fill="url(#paint0_linear_0_1179)"/>
<defs>
<linearGradient id="paint0_linear_0_1179" x1="-68.824" y1="39.4383" x2="-30.9295" y2="-49.7322" gradientUnits="userSpaceOnUse">
<stop stop-color="#C27A2C"/>
<stop offset="0.0801635" stop-color="#EEB247"/>
<stop offset="0.197432" stop-color="#CB822B"/>
<stop offset="0.255508" stop-color="#E79531"/>
<stop offset="0.316934" stop-color="#CD8C30"/>
<stop offset="0.564873" stop-color="#FAF8BE"/>
<stop offset="0.734633" stop-color="#E7B65B"/>
<stop offset="0.789358" stop-color="#FEE26A"/>
<stop offset="0.885406" stop-color="#D09034"/>
<stop offset="1" stop-color="#BA7228"/>
</linearGradient>
</defs>
</svg>
