<svg preserveAspectRatio="none" width="100%" height="100%" overflow="visible" style="display: block;" viewBox="0 0 98 109.043" fill="none" xmlns="http://www.w3.org/2000/svg">
<g id="Subtract">
<path d="M26.9473 8.19451C19.7573 11.0696 12.5751 13.9415 2 14.6117V37.4225C10.016 39.0978 16 45.7006 16 53.5906C16 61.4807 10.016 68.0834 2 69.7588V77.6117C8.71429 99.4517 29.9762 103.652 49 107.012C68.0238 103.652 89.2857 99.4517 96 77.6117V69.7588C87.984 68.0834 82 61.4807 82 53.5906C82 45.7006 87.984 39.0978 96 37.4225V14.6117C85.4249 13.9415 78.2427 11.0696 71.0527 8.19451C64.5476 5.59333 58.0362 2.98961 49 2.01168C39.9638 2.98961 33.4524 5.59333 26.9473 8.19451Z" stroke="var(--stroke-0, #E69A28)" stroke-width="4"/>
<path d="M26.9473 8.19451C19.7573 11.0696 12.5751 13.9415 2 14.6117V37.4225C10.016 39.0978 16 45.7006 16 53.5906C16 61.4807 10.016 68.0834 2 69.7588V77.6117C8.71429 99.4517 29.9762 103.652 49 107.012C68.0238 103.652 89.2857 99.4517 96 77.6117V69.7588C87.984 68.0834 82 61.4807 82 53.5906C82 45.7006 87.984 39.0978 96 37.4225V14.6117C85.4249 13.9415 78.2427 11.0696 71.0527 8.19451C64.5476 5.59333 58.0362 2.98961 49 2.01168C39.9638 2.98961 33.4524 5.59333 26.9473 8.19451Z" stroke="url(#paint0_linear_0_1163)" stroke-width="4"/>
</g>
<defs>
<linearGradient id="paint0_linear_0_1163" x1="-41.1961" y1="45.8601" x2="15.0448" y2="-28.8477" gradientUnits="userSpaceOnUse">
<stop stop-color="#C27A2C"/>
<stop offset="0.0801635" stop-color="#EEB247"/>
<stop offset="0.197432" stop-color="#CB822B"/>
<stop offset="0.255508" stop-color="#E79531"/>
<stop offset="0.316934" stop-color="#CD8C30"/>
<stop offset="0.564873" stop-color="#FAF8BE"/>
<stop offset="0.734633" stop-color="#E7B65B"/>
<stop offset="0.789358" stop-color="#FEE26A"/>
<stop offset="0.885406" stop-color="#D09034"/>
<stop offset="1" stop-color="#BA7228"/>
</linearGradient>
</defs>
</svg>
