<svg preserveAspectRatio="none" width="100%" height="100%" overflow="visible" style="display: block;" viewBox="0 0 80 91.0448" fill="none" xmlns="http://www.w3.org/2000/svg">
<g id="Subtract">
<path d="M22.1702 7.13518C16.357 9.51737 10.5501 11.897 2 12.4523V31.3527C8.48099 32.7408 13.3191 38.2116 13.3191 44.7491C13.3191 51.2866 8.48099 56.7574 2 58.1456V64.6523C7.42857 82.7483 24.619 86.2283 40 89.0123C55.381 86.2283 72.5714 82.7483 78 64.6523V58.1456C71.519 56.7574 66.6809 51.2866 66.6809 44.7491C66.6809 38.2116 71.519 32.7408 78 31.3527V12.4523C69.4499 11.897 63.643 9.51737 57.8298 7.13518C52.5704 4.97991 47.3059 2.82255 40 2.01226C32.6941 2.82255 27.4296 4.97991 22.1702 7.13518Z" stroke="var(--stroke-0, #E69A28)" stroke-width="4"/>
<path d="M22.1702 7.13518C16.357 9.51737 10.5501 11.897 2 12.4523V31.3527C8.48099 32.7408 13.3191 38.2116 13.3191 44.7491C13.3191 51.2866 8.48099 56.7574 2 58.1456V64.6523C7.42857 82.7483 24.619 86.2283 40 89.0123C55.381 86.2283 72.5714 82.7483 78 64.6523V58.1456C71.519 56.7574 66.6809 51.2866 66.6809 44.7491C66.6809 38.2116 71.519 32.7408 78 31.3527V12.4523C69.4499 11.897 63.643 9.51737 57.8298 7.13518C52.5704 4.97991 47.3059 2.82255 40 2.01226C32.6941 2.82255 27.4296 4.97991 22.1702 7.13518Z" stroke="url(#paint0_linear_0_1202)" stroke-width="4"/>
</g>
<defs>
<linearGradient id="paint0_linear_0_1202" x1="-32.9245" y1="38.3438" x2="13.9789" y2="-22.4521" gradientUnits="userSpaceOnUse">
<stop stop-color="#C27A2C"/>
<stop offset="0.0801635" stop-color="#EEB247"/>
<stop offset="0.197432" stop-color="#CB822B"/>
<stop offset="0.255508" stop-color="#E79531"/>
<stop offset="0.316934" stop-color="#CD8C30"/>
<stop offset="0.564873" stop-color="#FAF8BE"/>
<stop offset="0.734633" stop-color="#E7B65B"/>
<stop offset="0.789358" stop-color="#FEE26A"/>
<stop offset="0.885406" stop-color="#D09034"/>
<stop offset="1" stop-color="#BA7228"/>
</linearGradient>
</defs>
</svg>
