<svg preserveAspectRatio="none" width="100%" height="100%" overflow="visible" style="display: block;" viewBox="0 0 62 74.0371" fill="none" xmlns="http://www.w3.org/2000/svg">
<g id="Subtract">
<path d="M17.1584 5.69093C12.6456 7.63502 8.13757 9.57701 1.5 10.0302V25.4546C6.53129 26.5875 10.2872 31.0522 10.2872 36.3874C10.2872 41.7225 6.53129 46.1873 1.5 47.3201V52.6302C5.71429 67.3982 19.0595 70.2382 31 72.5102C42.9405 70.2382 56.2857 67.3982 60.5 52.6302V47.3201C55.4687 46.1873 51.7128 41.7225 51.7128 36.3874C51.7128 31.0522 55.4687 26.5875 60.5 25.4546V10.0302C53.8624 9.57701 49.3544 7.63502 44.8416 5.69093C40.7586 3.93204 36.6717 2.17143 31 1.51016C25.3283 2.17143 21.2414 3.93204 17.1584 5.69093Z" stroke="var(--stroke-0, #E69A28)" stroke-width="3"/>
<path d="M17.1584 5.69093C12.6456 7.63502 8.13757 9.57701 1.5 10.0302V25.4546C6.53129 26.5875 10.2872 31.0522 10.2872 36.3874C10.2872 41.7225 6.53129 46.1873 1.5 47.3201V52.6302C5.71429 67.3982 19.0595 70.2382 31 72.5102C42.9405 70.2382 56.2857 67.3982 60.5 52.6302V47.3201C55.4687 46.1873 51.7128 41.7225 51.7128 36.3874C51.7128 31.0522 55.4687 26.5875 60.5 25.4546V10.0302C53.8624 9.57701 49.3544 7.63502 44.8416 5.69093C40.7586 3.93204 36.6717 2.17143 31 1.51016C25.3283 2.17143 21.2414 3.93204 17.1584 5.69093Z" stroke="url(#paint0_linear_0_1190)" stroke-width="3"/>
</g>
<defs>
<linearGradient id="paint0_linear_0_1190" x1="-25.6124" y1="31.16" x2="13.1079" y2="-16.5828" gradientUnits="userSpaceOnUse">
<stop stop-color="#C27A2C"/>
<stop offset="0.0801635" stop-color="#EEB247"/>
<stop offset="0.197432" stop-color="#CB822B"/>
<stop offset="0.255508" stop-color="#E79531"/>
<stop offset="0.316934" stop-color="#CD8C30"/>
<stop offset="0.564873" stop-color="#FAF8BE"/>
<stop offset="0.734633" stop-color="#E7B65B"/>
<stop offset="0.789358" stop-color="#FEE26A"/>
<stop offset="0.885406" stop-color="#D09034"/>
<stop offset="1" stop-color="#BA7228"/>
</linearGradient>
</defs>
</svg>
